<svg version="1.2" xmlns="http://www.w3.org/2000/svg" viewBox="0 0 803 650" width="803" height="650">
	<title>ww-svg</title>
	<defs>
		<clipPath clipPathUnits="userSpaceOnUse" id="cp1">
			<path d="m0 1.08h802v648.34h-802z"/>
		</clipPath>
		<clipPath clipPathUnits="userSpaceOnUse" id="cp2">
			<path d="m293 1.08h242v244.92h-242z"/>
		</clipPath>
		<clipPath clipPathUnits="userSpaceOnUse" id="cp3">
			<path d="m377 1.08h290v255.92h-290z"/>
		</clipPath>
		<clipPath clipPathUnits="userSpaceOnUse" id="cp4">
			<path d="m559 118h243v244h-243z"/>
		</clipPath>
		<clipPath clipPathUnits="userSpaceOnUse" id="cp5">
			<path d="m591 186h211v229h-211z"/>
		</clipPath>
		<clipPath clipPathUnits="userSpaceOnUse" id="cp6">
			<path d="m21 426h199v173h-199z"/>
		</clipPath>
		<clipPath clipPathUnits="userSpaceOnUse" id="cp7">
			<path d="m-19.94 500.68l167.04-120.77 126.04 174.32-167.04 120.77z"/>
		</clipPath>
		<clipPath clipPathUnits="userSpaceOnUse" id="cp8">
			<path d="m-19.94 500.68l167.04-120.77 126.04 174.32-167.04 120.77z"/>
		</clipPath>
		<clipPath clipPathUnits="userSpaceOnUse" id="cp9">
			<path d="m-19.94 500.68l167.04-120.77 126.04 174.32-167.04 120.77z"/>
		</clipPath>
		<clipPath clipPathUnits="userSpaceOnUse" id="cp10">
			<path d="m35 431h185v187h-185z"/>
		</clipPath>
		<clipPath clipPathUnits="userSpaceOnUse" id="cp11">
			<path d="m-19.94 500.68l167.04-120.77 126.04 174.32-167.04 120.77z"/>
		</clipPath>
		<clipPath clipPathUnits="userSpaceOnUse" id="cp12">
			<path d="m-19.94 500.68l167.04-120.77 126.04 174.32-167.04 120.77z"/>
		</clipPath>
		<clipPath clipPathUnits="userSpaceOnUse" id="cp13">
			<path d="m-19.94 500.68l167.04-120.77 126.04 174.32-167.04 120.77z"/>
		</clipPath>
		<clipPath clipPathUnits="userSpaceOnUse" id="cp14">
			<path d="m19 424h203v196h-203z"/>
		</clipPath>
		<clipPath clipPathUnits="userSpaceOnUse" id="cp15">
			<path d="m-19.94 500.68l167.04-120.77 126.04 174.32-167.04 120.77z"/>
		</clipPath>
		<clipPath clipPathUnits="userSpaceOnUse" id="cp16">
			<path d="m-19.94 500.68l167.04-120.77 126.04 174.32-167.04 120.77z"/>
		</clipPath>
		<clipPath clipPathUnits="userSpaceOnUse" id="cp17">
			<path d="m-19.94 500.68l167.04-120.77 126.04 174.32-167.04 120.77z"/>
		</clipPath>
	</defs>
	<style>
		.s0 { fill: none;stroke: #004aad;stroke-width: 15.8 } 
		.s1 { fill: #ffffff } 
		.s2 { fill: #ffbb7f } 
		.s3 { fill: #f2933e } 
		.s4 { fill: #9a4a04 } 
	</style>
	<g id="Clip-Path" clip-path="url(#cp1)">
		<g>
		</g>
	</g>
	<path fill-rule="evenodd" class="s0" d="m145.6 270.1l-3.3 19.3c-0.3 1.9 0.4 3.2 1.9 3.5l0.5 0.1c3.7 0.6 6.7-6.4 11.9-3.1l46.6 28.6-30.4 4.8-21-13.6c-6.3-4-4.3-10.9-8-11.6l-0.5-0.1c-1.5-0.2-2.7 0.9-3 2.7l-1.9 10.8c-0.3 2 0.5 3.6 2.1 4.7l15.3 9.8-17.3 2.7c-2.2 0.3-3.3 1.4-3.7 3.5l-3.3 19c-0.3 1.8 0.4 3.1 2 3.4l0.5 0.1c3.6 0.6 4.9-3.5 12.2-5l35.4-7.1 18.5 11.7-56.8 12.7c-6.7 1.5-6.7-5.6-10.4-6.3l-0.5-0.1c-1.5-0.2-2.6 0.8-3 2.6l-5.2 30.2c-0.4 1.9 0.4 3.2 1.9 3.5l0.5 0.1c3.7 0.6 5.4-4.5 12.6-6.3l76.8-19.5c4.3-1.1 6.7-3.7 7.5-8.1 0.7-4.4-1.1-7.3-4.9-9.8l-21.3-14 25.1-5c4.3-0.8 6.7-3.7 7.4-7.3 0.6-3.3-0.9-6.4-5.1-9l-65.9-40.7c-6.4-4-5.9-9.1-9.7-9.8l-0.5-0.1c-1.5-0.2-2.6 0.9-3 2.7z"/>
	<path fill-rule="evenodd" class="s0" d="m253.1 234.3c6 3.9 13.5 16.8 4.1 33.1-9.7 16.7-28.1 21.9-45.1 12.1-16.9-9.7-20.4-28.9-11.7-44.1 7.6-13.5 19.4-18.8 29.3-13.1 7.9 4.6 10.2 15.8 5.8 27.4-1.7 4.4-3.7 8.5-5.8 11.8 7.4 0.3 13.7-2.6 17.4-9 3.2-5.6 3.5-11.3 2-14.9-0.7-2.5 1.6-4.8 4-3.3zm-39.9 21.9c3 1.7 6.2 3.1 9.3 4 1.3-2.1 2.4-4.2 3-5.8 2-5.5 0-10.2-7.7-14.7-5.1-2.8-10.7-2.2-12.8 1.5-2.7 4.6 0.7 10.7 8.2 15z"/>
	<path fill-rule="evenodd" class="s0" d="m274.5 229.4l-0.3-0.4c-2.3-2.9 1.1-6.4-1.1-13.5l-20.1-64.7c-1.6-5.2-9.7-4-11.6-6.4l-0.3-0.4c-1-1.2-0.7-2.7 0.8-3.8l23.5-18.7c1.3-1 2.9-1.1 3.9 0.1l0.3 0.4c1.8 2.4-2.1 9.3 3.5 12.4l61 32.8c6.4 3.5 10.6 1.2 12.8 4.1l0.4 0.4c0.9 1.2 0.6 2.6-0.9 3.8l-26.2 20.8c-1.5 1.2-3 1.2-4 0l-0.3-0.4c-2.3-2.9 2.8-9.1-2.6-12.3l-7.4-4.4-25.8 20.5 2.7 8.1c2.1 6 9.1 2.4 11.4 5.3l0.3 0.4c1 1.2 0.6 2.7-0.9 3.9l-15.1 12c-1.6 1.2-3.1 1.2-4 0zm22.8-55.9l-32.8-20.1 12.2 36.4z"/>
	<path fill-rule="evenodd" class="s0" d="m359 104.2c-8.3 3.5-12.2 10.1-11.7 18.9l-3.6-8.8c-1-2.4-3-3.6-5.5-0.9l-13.6 15.1c-1.4 1.7-1.9 3.2-1.3 4.6l0.1 0.4c1.5 3.5 7.5 1.6 9.9 7.2l10 24c2.3 5.5-1.9 9-0.5 12.3l0.2 0.5c0.6 1.4 2.2 1.8 3.8 1.1l25.9-10.8c1.7-0.7 2.6-2.1 2-3.5l-0.2-0.5c-1.5-3.4-8.4-2.2-10.8-7.7l-9.3-22.4c-2.3-5.3-4.3-11.8-0.4-13.4 6-2.5 5.8 10.8 16.7 6.3 7-3 7.1-9.2 4.6-15.2-2.8-6.8-9.2-10.2-16.3-7.2z"/>
	<g id="Clip-Path" clip-path="url(#cp2)">
		<g>
			<path fill-rule="evenodd" class="s0" d="m444.7 131.4c0.9 7.1-4.3 21.1-22.8 24.3-19 3.4-34.8-7.4-38.1-26.8-3.4-19.2 9.1-34.2 26.3-37.3 15.3-2.8 26.9 2.8 28.8 14.2 1.6 9-5.6 17.9-17.3 21.9-4.4 1.6-8.9 2.6-12.7 3.2 4.4 5.8 10.8 8.8 18 7.6 6.4-1.2 11-4.6 12.7-8.1 1.5-2.1 4.7-1.9 5.1 1zm-42.4-16.6c0.6 3.4 1.6 6.7 2.9 9.7 2.5-0.3 4.8-0.9 6.4-1.4 5.5-2 7.9-6.5 6.4-15.4-1.2-5.6-5.2-9.6-9.4-8.8-5.3 0.9-7.7 7.4-6.3 15.9z"/>
		</g>
	</g>
	<g id="Clip-Path" clip-path="url(#cp3)">
		<g>
			<path fill-rule="evenodd" class="s0" d="m469.2 147.8l27.8 6.3c1.9 0.5 3.2-0.2 3.6-1.7l0.1-0.5c0.8-3.6-4.4-6.3-3.1-12.2l6.2-26.7 33.4 7.6-6 26.8c-1.3 5.8-6.6 6.2-7.5 9.8l-0.1 0.5c-0.3 1.5 0.5 2.6 2.4 3.1l27.7 6.3c1.8 0.4 3.3-0.2 3.6-1.7l0.1-0.5c0.8-3.6-4.5-6.4-3.2-12.3l14.3-62.6c1.3-5.8 7.4-6 8.2-9.6l0.1-0.5c0.4-1.5-0.7-2.7-2.5-3.1l-27.7-6.3c-1.9-0.5-3.1 0.2-3.5 1.7l-0.1 0.5c-0.8 3.6 3.8 6.2 2.5 12.1l-6.1 25.9-33.4-7.6 6-26c1.4-5.8 7.2-6.1 8-9.7l0.1-0.5c0.3-1.5-0.6-2.6-2.5-3.1l-27.7-6.3c-1.8-0.4-3.3 0.2-3.6 1.7l-0.1 0.5c-0.9 3.6 3.9 6.3 2.6 12.1l-14.3 62.6c-1.4 5.9-6.8 6.2-7.6 9.8l-0.1 0.5c-0.4 1.5 0.7 2.7 2.4 3.1z"/>
		</g>
	</g>
	<path fill-rule="evenodd" class="s0" d="m613.4 182.7c-3.9 6-16.9 13.4-33.1 3.9-16.7-9.7-21.8-28.1-11.8-45.1 9.8-16.8 29-20.3 44.2-11.5 13.4 7.7 18.6 19.5 12.8 29.4-4.6 7.9-15.8 10.1-27.4 5.6-4.3-1.7-8.4-3.8-11.7-5.8-0.4 7.3 2.5 13.7 8.8 17.4 5.7 3.3 11.4 3.6 15 2.1 2.5-0.7 4.8 1.6 3.2 4zm-21.6-40c-1.8 3-3.2 6.2-4.1 9.2 2.1 1.4 4.2 2.5 5.8 3.1 5.5 2 10.2 0.1 14.8-7.7 2.7-5 2.2-10.6-1.5-12.8-4.6-2.7-10.7 0.7-15 8.2z"/>
	<path fill-rule="evenodd" class="s0" d="m676.9 180.7c-6.6-6.2-14.2-7.1-22-2.9l6.5-7c1.8-1.9 2.1-4.1-1.4-5.3l-19.4-6.3c-2.1-0.6-3.7-0.4-4.7 0.7l-0.3 0.3c-2.6 2.8 1.6 7.4-2.6 11.9l-17.7 19c-4.1 4.3-9 1.9-11.5 4.6l-0.4 0.3c-1 1.2-0.7 2.7 0.6 4l20.5 19.2c1.3 1.2 2.9 1.4 4 0.3l0.3-0.4c2.5-2.6-1.5-8.5 2.6-12.9l16.6-17.7c4-4.2 9.1-8.7 12.2-5.8 4.7 4.4-7.6 9.7 1.1 17.8 5.5 5.2 11.2 2.7 15.7-2 5-5.3 5.5-12.6-0.1-17.8z"/>
	<g id="Clip-Path" clip-path="url(#cp4)">
		<g>
			<path fill-rule="evenodd" class="s0" d="m687.1 270c-6.2 3.7-21.1 4.8-31.6-10.8-10.8-16-7.4-34.8 9-45.8 16.1-10.9 34.9-5.6 44.8 8.8 8.8 12.8 8.3 25.7-1.2 32.1-7.6 5.1-18.7 2.2-27.1-6.9-3.2-3.4-6-7-8.1-10.3-3.5 6.5-3.6 13.5 0.4 19.5 3.7 5.4 8.7 8.2 12.6 8.4 2.5 0.5 3.6 3.5 1.2 5zm-2.2-45.4c-2.9 1.9-5.5 4.2-7.6 6.6 1.2 2.1 2.7 4 3.8 5.2 4.1 4.2 9.2 4.6 16.7-0.5 4.7-3.3 6.6-8.6 4.2-12.1-3-4.5-9.9-4-17.1 0.8z"/>
		</g>
	</g>
	<g id="Clip-Path" clip-path="url(#cp5)">
		<g>
			<path fill-rule="evenodd" class="s0" d="m761.1 276.1c10.2-3.3 17.8 19 7.4 22.3-10.3 3.3-32.6 8.9-53.5 10-3.4 0.2-5.6-6.9-2.9-8.7 17.7-10.8 39.5-20.3 49-23.6zm-72 21.6c8-2.7 13.7 2.1 16 9.1 2.3 7.1 0.6 14.4-7.4 17.1-8.1 2.6-13.7-2.3-16-9.4-2.3-7-0.7-14.2 7.4-16.8z"/>
		</g>
	</g>
	<g>
		<g>
			<g>
				<path class="s1" d="m145.7 270.1l-3.4 19.3c-0.4 1.9 0.3 3.2 1.9 3.5l0.5 0.1c3.7 0.6 6.7-6.4 11.9-3.1l46.6 28.6-30.4 4.8-20.9-13.6c-6.4-4-4.4-10.9-8.1-11.6l-0.5-0.1c-1.6-0.2-2.7 0.9-3 2.7l-1.9 10.8c-0.3 2 0.5 3.6 2.1 4.7l15.3 9.8-17.3 2.7c-2.2 0.3-3.3 1.4-3.7 3.5l-3.3 19c-0.3 1.8 0.4 3.1 1.9 3.4l0.6 0.1c3.6 0.6 4.9-3.5 12.2-5l35.4-7.1 18.5 11.7-56.8 12.7c-6.7 1.5-6.7-5.6-10.4-6.3l-0.5-0.1c-1.6-0.2-2.7 0.8-3 2.6l-5.2 30.2c-0.4 1.9 0.3 3.2 1.9 3.5l0.5 0.1c3.7 0.6 5.4-4.5 12.6-6.3l76.8-19.5c4.3-1.1 6.7-3.7 7.5-8.1 0.7-4.4-1.1-7.3-4.9-9.8l-21.3-13.9 25.1-5.1c4.3-0.8 6.7-3.7 7.4-7.3 0.6-3.3-0.9-6.4-5.1-9l-65.9-40.7c-6.4-4-5.9-9.1-9.7-9.8l-0.5-0.1c-1.5-0.2-2.6 0.9-2.9 2.7z"/>
			</g>
		</g>
	</g>
	<g>
		<g>
			<g>
				<path fill-rule="evenodd" class="s1" d="m253.1 234.3c6 3.9 13.5 16.8 4.1 33.1-9.7 16.7-28 21.9-45.1 12.1-16.9-9.7-20.4-28.9-11.8-44.2 7.7-13.5 19.5-18.7 29.4-13 7.9 4.6 10.2 15.8 5.7 27.5-1.6 4.3-3.6 8.4-5.7 11.7 7.3 0.3 13.7-2.6 17.4-9 3.2-5.6 3.5-11.3 2-14.9-0.7-2.5 1.6-4.8 4-3.3zm-39.9 21.9c3 1.7 6.2 3.1 9.3 4 1.3-2.1 2.4-4.2 3-5.8 2-5.5 0-10.2-7.8-14.7-5-2.8-10.6-2.2-12.7 1.5-2.7 4.6 0.7 10.7 8.2 15z"/>
			</g>
		</g>
	</g>
	<g>
		<g>
			<g>
			</g>
		</g>
	</g>
	<g>
		<g>
			<g>
				<path fill-rule="evenodd" class="s1" d="m274.5 229.4l-0.3-0.4c-2.3-2.9 1.1-6.4-1.1-13.5l-20.1-64.7c-1.6-5.2-9.7-4-11.6-6.4l-0.3-0.4c-1-1.2-0.7-2.7 0.8-3.8l23.5-18.7c1.3-1 2.9-1.1 3.9 0.1l0.3 0.4c1.9 2.4-2.1 9.3 3.5 12.4l61 32.8c6.4 3.5 10.6 1.2 12.9 4.1l0.3 0.3c1 1.3 0.6 2.7-0.9 3.9l-26.2 20.8c-1.5 1.2-3 1.2-4 0l-0.3-0.4c-2.3-2.9 2.8-9.1-2.6-12.3l-7.4-4.5-25.8 20.6 2.7 8.1c2.1 6 9.1 2.4 11.4 5.3l0.3 0.4c1 1.2 0.6 2.7-0.9 3.9l-15.1 12c-1.5 1.2-3 1.2-4 0zm22.8-55.9l-32.8-20.1 12.2 36.4z"/>
			</g>
		</g>
	</g>
	<g>
		<g>
			<g>
				<path class="s1" d="m359 104.2c-8.3 3.5-12.2 10.1-11.6 18.9l-3.7-8.8c-1-2.4-2.9-3.6-5.5-0.9l-13.6 15.1c-1.4 1.7-1.9 3.2-1.3 4.7l0.1 0.3c1.5 3.5 7.5 1.5 9.9 7.2l10 24c2.3 5.5-1.9 9-0.5 12.3l0.2 0.5c0.6 1.5 2.2 1.8 3.9 1.1l25.8-10.8c1.7-0.8 2.6-2.1 2-3.5l-0.2-0.5c-1.5-3.4-8.4-2.2-10.8-7.7l-9.3-22.4c-2.3-5.3-4.3-11.8-0.4-13.4 6-2.5 5.8 10.9 16.8 6.3 6.9-3 7-9.2 4.5-15.2-2.8-6.8-9.2-10.2-16.3-7.2z"/>
			</g>
		</g>
	</g>
	<g>
		<g>
			<g>
				<path fill-rule="evenodd" class="s1" d="m444.7 131.4c0.9 7.1-4.3 21.1-22.8 24.3-19 3.4-34.8-7.4-38.1-26.8-3.4-19.2 9.1-34.2 26.3-37.3 15.3-2.8 26.9 2.9 28.8 14.2 1.6 8.9-5.6 17.9-17.3 21.9-4.4 1.6-8.9 2.6-12.7 3.2 4.4 5.8 10.8 8.8 18 7.6 6.4-1.2 11-4.6 12.7-8.1 1.5-2.1 4.7-1.9 5.1 1zm-42.3-16.6c0.6 3.4 1.5 6.7 2.8 9.7 2.5-0.3 4.8-0.8 6.4-1.4 5.5-2 7.9-6.5 6.3-15.4-1.1-5.6-5.1-9.6-9.3-8.8-5.3 0.9-7.7 7.4-6.2 15.9z"/>
			</g>
		</g>
	</g>
	<g>
		<g>
			<g>
			</g>
		</g>
	</g>
	<g>
		<g>
			<g>
				<path class="s1" d="m469.3 147.8l27.7 6.3c1.9 0.5 3.3-0.1 3.6-1.7l0.1-0.5c0.8-3.5-4.4-6.3-3.1-12.2l6.2-26.7 33.4 7.6-6 26.8c-1.3 5.8-6.6 6.2-7.5 9.8l-0.1 0.5c-0.3 1.5 0.5 2.6 2.4 3.1l27.7 6.3c1.8 0.4 3.3-0.2 3.6-1.7l0.1-0.5c0.9-3.6-4.5-6.4-3.2-12.3l14.3-62.6c1.4-5.8 7.4-6 8.2-9.6l0.1-0.5c0.4-1.5-0.7-2.7-2.5-3.1l-27.7-6.3c-1.9-0.5-3.1 0.2-3.5 1.7l-0.1 0.5c-0.8 3.6 3.8 6.2 2.5 12.1l-6.1 25.9-33.4-7.6 6-26c1.4-5.8 7.2-6.1 8-9.6l0.1-0.6c0.4-1.5-0.6-2.6-2.5-3.1l-27.7-6.3c-1.8-0.4-3.3 0.2-3.6 1.7l-0.2 0.5c-0.8 3.6 4 6.3 2.6 12.1l-14.2 62.6c-1.4 5.9-6.8 6.2-7.6 9.8l-0.2 0.5c-0.3 1.5 0.8 2.7 2.6 3.1z"/>
			</g>
		</g>
	</g>
	<g>
		<g>
			<g>
				<path fill-rule="evenodd" class="s1" d="m613.4 182.7c-3.9 6-16.9 13.4-33.1 3.9-16.7-9.7-21.8-28.1-11.8-45.1 9.8-16.8 29-20.3 44.2-11.5 13.4 7.7 18.6 19.5 12.9 29.4-4.7 7.9-15.9 10.1-27.5 5.6-4.3-1.7-8.4-3.8-11.7-5.8-0.4 7.3 2.5 13.7 8.8 17.4 5.7 3.3 11.4 3.6 15 2.1 2.5-0.7 4.8 1.6 3.2 4zm-21.6-40c-1.8 3-3.2 6.2-4.1 9.3 2.1 1.3 4.2 2.4 5.8 3 5.5 2 10.2 0.1 14.8-7.7 2.8-5 2.2-10.6-1.5-12.8-4.6-2.6-10.7 0.7-15 8.2z"/>
			</g>
		</g>
	</g>
	<g>
		<g>
			<g>
				<path class="s1" d="m676.9 180.7c-6.6-6.2-14.2-7.1-22-2.9l6.5-7c1.8-1.9 2.1-4.1-1.4-5.3l-19.4-6.3c-2.1-0.6-3.7-0.4-4.7 0.7l-0.3 0.3c-2.6 2.8 1.6 7.4-2.6 11.9l-17.7 18.9c-4.1 4.4-9 2-11.5 4.7l-0.4 0.3c-1 1.2-0.7 2.7 0.6 4l20.5 19.2c1.3 1.2 2.9 1.5 4 0.3l0.3-0.4c2.5-2.6-1.5-8.5 2.7-12.9l16.6-17.7c3.9-4.2 9-8.7 12-5.8 4.8 4.5-7.5 9.7 1.1 17.8 5.6 5.2 11.3 2.7 15.8-2 5-5.4 5.5-12.6-0.1-17.8z"/>
			</g>
		</g>
	</g>
	<g>
		<g>
			<g>
				<path fill-rule="evenodd" class="s1" d="m687.1 270c-6.2 3.7-21.1 4.8-31.6-10.8-10.8-16-7.4-34.8 9-45.8 16.1-10.9 34.9-5.6 44.8 8.8 8.8 12.8 8.3 25.7-1.2 32.1-7.6 5.1-18.7 2.2-27.1-6.9-3.2-3.4-6-7-8.1-10.3-3.5 6.4-3.7 13.5 0.4 19.5 3.7 5.4 8.7 8.2 12.6 8.4 2.5 0.5 3.6 3.5 1.2 5zm-2.2-45.4c-2.9 2-5.5 4.2-7.6 6.6 1.2 2.1 2.7 4 3.8 5.2 4.1 4.2 9.2 4.6 16.7-0.5 4.7-3.3 6.6-8.5 4.2-12.1-3-4.5-9.9-4-17.1 0.8z"/>
			</g>
		</g>
	</g>
	<g>
		<g>
			<g>
			</g>
		</g>
	</g>
	<g>
		<g>
			<g>
				<path class="s1" d="m712.1 299.7c-2.7 1.8-0.5 8.9 2.9 8.7 20.9-1.1 43.2-6.6 53.5-10 10.4-3.3 2.7-25.6-7.4-22.3-9.5 3.3-31.3 12.7-49 23.6zm-30.4 14.8c2.3 7.1 7.9 12 15.9 9.3 8.1-2.6 9.8-9.9 7.5-17-2.3-7-8-11.8-16-9.1-8.1 2.6-9.8 9.8-7.4 16.8z"/>
			</g>
		</g>
	</g>
	<g id="Clip-Path" clip-path="url(#cp6)">
		<g>
			<g id="Clip-Path" clip-path="url(#cp7)">
				<g>
					<g id="Clip-Path" clip-path="url(#cp8)">
						<g>
							<g id="Clip-Path" clip-path="url(#cp9)">
								<g>
									<path class="s2" d="m21.8 487.1c-3.5 12.8 13.5 17.8 33.1 23.4 15.6 4.5 31.1 9.9 43.1 13.9 10.4 3.5 18 5.8 16.7 9.3-1 2.5-8 0.1-17.4-2.6-10-2.9-22.6-6.4-34.3-10.2-16-5.3-30.5-9.2-33.6 2.4-3 10.8 11.9 15.2 28.9 19.9 16.9 4.6 36.7 9.4 48.8 12.7 6.7 1.9 11.1 3.1 10.6 5.5-0.6 2.5-6.6 2.1-14.6 0.3-18.3-4.1-45.9-14.8-47 2.2-0.8 11.2 19.7 14.8 39.8 18.8 23.7 4.9 37.9 10.1 37.9 10.1 0 0 55.1 22.4 76.3-24.3 21.7-47.7 2.3-68.8-24.2-96-14.4-14.7-11.7-28.7-9.5-39.9 1.9-9.5-21.4-10.1-27.8 9.1-6.5 19.4 12.3 31.6 2.4 40.4-8.7 7.8-32.7-6.4-53.5-14.2-22.2-8.3-43.8-20.4-49.3-7.6-5.3 12.5 16.4 20.3 35.7 27.5 18.2 6.8 34.8 13.6 33.5 17-0.8 2.1-9.9-1-23.1-5.6-10.9-3.9-24.9-8.7-36.6-13.1-17-6.4-32.6-10.9-35.9 1z"/>
								</g>
							</g>
						</g>
					</g>
				</g>
			</g>
		</g>
	</g>
	<g id="Clip-Path" clip-path="url(#cp10)">
		<g>
			<g id="Clip-Path" clip-path="url(#cp11)">
				<g>
					<g id="Clip-Path" clip-path="url(#cp12)">
						<g>
							<g id="Clip-Path" clip-path="url(#cp13)">
								<g>
									<path fill-rule="evenodd" class="s3" d="m176.2 431.4c0.1 0.4 0.3 0.8 0.2 1.2-2.2 11.2-4.9 25.2 9.4 39.9 26.6 27.2 46 48.3 24.3 96-21.3 46.7-76.3 24.3-76.3 24.3 0 0-32.7-8.8-54.7-13.6-18.3-3.9-21.8-12.6-21.8-12.6 0 0 11.5 10.1 39.9 11.5 35.4 1.8 78 24.2 99.9-11.5 22.5-36.6 16.1-54.3-16-89.6-17.6-19.3-5.6-46-5.6-46zm-58.9 73.3c1.5-4-18-10.8-43.8-21.1-27.6-11.1-24.6-19.6-24.6-19.6 0 0 0.6 5.2 11.6 10.4 10.9 5.1 27.8 10.9 38.3 15 14.4 5.7 26.9 11.3 24.8 17.4-2.3 6.5-14.7 1.9-29.2-3.3-20.8-7.6-45.4-18.8-45.4-18.8 0 0 66.5 24.8 68.3 20zm32.6 57.4c0 0 6.3-17.5 16.8-25.3 0 0-10.2-8.8-9.2-30.3 0 0 0.2 19.4 24.7 31.4 0 0-18.7 1.7-32.3 24.2zm-99.9-43.1q0 0 0 0zm0 0c0 0.1 62.8 17.7 64.1 14.4 1.8-4.3-62.9-25.9-62.9-25.9 0 0 23 5.4 42.5 11.7 14.7 4.7 30.3 7.9 27.9 16.3-2.1 7.6-16.6 2.2-31.4-2.1-21.3-6.3-40.2-14.4-40.2-14.4zm87-15.1c-13 30-2.3 59.1-2.3 59.1-9.7-18.3-9.2-33.1-6.2-43.3 3-10.2 8.5-15.8 8.5-15.8zm-63.1 42.7c-26.3-6-38.3-13.1-38.3-13.1 0 0 25.2 8.5 59.2 15.6 15.2 3.2 31.3 5.6 29.3 14.1-1.5 6.5-12.6 5.2-27.3 0.5-28.3-9.2-32.1-6.7-32.1-6.7 0 0-0.4-4.9 18.4 0.1 9.7 2.6 33.9 9.4 34.2 3.8 0.3-3.1-25.8-10.3-43.4-14.3zm-22.7-89.5c0 0 9.7-7.1 41.2 9.3 23.7 12.4 46.7 21.4 56.7 17 9.1-4.1 1.7-22 1.7-22 0 0 10.8 17.8 2 26.3-7.4 7.1-30.7-3.9-56.3-15.6-8.2-3.7-19.3-9.3-28.5-12.4-8.9-3.1-16.8-2.6-16.8-2.6zm37.4-1.5c0 0 11.8-5.3 23.3-1.8 11.5 3.5 20.8 16.4 20.8 16.4 0 0-10.4-6.5-22-9.9-11.5-3.5-22.1-4.7-22.1-4.7zm0.8-11.3c0 0 16.2-12.5 29.9-7.1 14.9 5.9 20 24.5 20 24.5 0 0-12-12.4-23.7-16.6-11.8-4.2-26.2-0.8-26.2-0.8zm19.5 162.7c0 0-15.4 13.5-30 9.8-15.2-3.8-21.2-22.2-21.2-22.2 0 0 10.2 10.7 22.3 13.6 12.1 2.8 28.9-1.2 28.9-1.2zm-1-10.6c0 0-14.6 5.7-26.2 2.4-11.5-3.3-18.7-14.1-18.7-14.1 0 0 9.6 4.7 21.2 8 11.5 3.4 23.7 3.7 23.7 3.7z"/>
								</g>
							</g>
						</g>
					</g>
				</g>
			</g>
		</g>
	</g>
	<g id="Clip-Path" clip-path="url(#cp14)">
		<g>
			<g id="Clip-Path" clip-path="url(#cp15)">
				<g>
					<g id="Clip-Path" clip-path="url(#cp16)">
						<g>
							<g id="Clip-Path" clip-path="url(#cp17)">
								<g>
									<path fill-rule="evenodd" class="s4" d="m178.4 433c-1.7 8.4-2.1 12.6-1.5 17.9 0.9 7.1 4.1 13.7 10.4 20.2 18.5 19 25.9 28.2 30.6 41 6.1 16.2 4.5 34.2-6 57.2-11.2 24.7-32.2 33.2-57.7 30.4-5.3-0.6-10.4-1.7-15.1-3-1.6-0.5-3.1-0.9-4.4-1.4-0.8-0.3-1.3-0.5-1.6-0.6-0.1 0-1.8-0.6-2.5-0.8-2.1-0.7-4.6-1.6-7.4-2.4-8.1-2.4-17.4-4.7-27.8-6.8-0.5-0.1-1-0.3-1.7-0.4-15.7-3.2-20.9-4.4-26.9-6.7-8.7-3.3-13.1-7.6-12.7-13.8 0.7-10.6 9.3-13 24.5-10.1 3.4 0.6 6.9 1.4 11.8 2.7 1.1 0.3 5.6 1.5 6.8 1.8 2.6 0.6 4.6 1.1 6.4 1.5 4.1 0.9 7.3 1.4 9.6 1.4 1 0 1.9 0 2.3-0.2 0-0.2-2-1.1-9-3-3.8-1.1-23-6.1-24-6.3-3.7-1-20.9-5.5-24.7-6.5-12-3.3-17.6-5.1-22.4-7.8-6.7-3.7-9.6-8.4-8-14.5 1.8-6.4 6.7-9.3 14-9 5.5 0.1 11.7 1.7 22.3 5.2 1.5 0.5 3 1 4.6 1.5q3.9 1.2 8.3 2.5c3.4 1 26.6 7.7 27.8 8.1 2.2 0.6 3.8 1 5.2 1.3q2.1 0.4 3.1 0.3c0 0 0 0-0.1-0.1q-0.7-0.8-2.8-1.7c-2.3-1.2-4-1.8-12.3-4.6-2.8-0.9-13.8-4.6-16.3-5.4-6.9-2.3-12.6-4.2-18.2-5.9-3-0.9-5.8-1.8-8.6-2.6-14.4-4.1-20.2-6.1-25.7-9.1-7.5-4.3-10.7-9.7-8.8-16.7 1.8-6.7 7-9.4 14.8-8.9 5.9 0.4 12.9 2.5 23.6 6.5 4.2 1.6 8.9 3.3 14.2 5.2 0.8 0.3 21 7.4 22.4 7.9 8.4 2.9 12.7 4.4 16.1 5.3 1.3 0.3 2 0.3 2.8 0.5-1.5-1.1-3.7-2.3-6.7-3.7-5.5-2.7-13.1-5.7-23.9-9.7-0.8-0.3-6.2-2.4-7.5-2.9-10.8-4.1-17.7-7.3-22.7-10.9-6.6-4.9-9.2-10.3-6.6-16.4 1-2.6 2.8-4.4 4.9-5.5 2.2-1.1 5-1.5 8.1-1.2 4.1 0.3 8.9 1.6 15.3 3.9 2.5 1 5.2 2 8.8 3.5 1 0.4 7.7 3.1 9.1 3.6 2 0.8 3.9 1.6 5.6 2.2 3.8 1.4 7.5 3 13.3 5.5 17.4 7.5 21.5 9.1 27.7 10.3 5 1 8.4 0.6 10.5-1.2 3-2.8 2.9-5.4 0.1-12.5-2.5-6.2-2.7-6.8-3.5-9.6-1.6-5.9-1.6-11.5 0.4-17.4 3.1-9.4 10.4-15.3 18.6-16.7 7.8-1.3 14.3 2.3 13.1 8.6zm-12.4-4.6c-6.8 1.1-12.9 6.1-15.5 14-1.7 5.1-1.7 9.9-0.3 15.1 0.7 2.6 0.9 3.1 3.3 9.1 3.4 8.5 3.6 12.7-1.1 17-3.2 2.8-7.8 3.3-13.9 2.1-6.7-1.3-10.8-2.9-28.6-10.6-5.7-2.4-9.4-3.9-13.1-5.3q-2.6-1-5.7-2.2c-1.3-0.6-8.1-3.3-9.1-3.7-3.6-1.5-6.2-2.5-8.6-3.4-6.1-2.2-10.7-3.4-14.3-3.7-2.4-0.2-4.3 0-5.8 0.7-1.4 0.7-2.5 1.8-3.2 3.5-3.2 7.6 5.2 13.7 27 22.1 1.2 0.5 6.7 2.5 7.5 2.8 27 10.1 36.6 14.7 34.7 19.6-0.9 2.6-3.7 2.4-9.3 0.9-3.6-1-8-2.4-16.4-5.4-1.5-0.5-16.9-5.9-20.1-7-0.8-0.3-12.3-4.5-16.5-6-10.5-4-17.1-5.9-22.5-6.2-6.1-0.5-9.5 1.3-10.8 5.8-2.5 9.1 5.1 13.3 31.7 21q4.3 1.2 8.8 2.6c5.6 1.7 11.3 3.5 18.3 5.9 2.5 0.8 13.4 4.6 16.2 5.5 8.5 2.8 10.3 3.4 12.9 4.6 4.1 2 6.1 4.2 5 7.2-1 2.6-3.5 2.8-7.8 2-1.5-0.3-3.2-0.8-5.5-1.4-1.2-0.4-24.4-7.1-27.9-8.1q-4.3-1.3-8.3-2.6-2.4-0.8-4.7-1.5c-20.6-6.8-28.9-7.1-31.1 1-2 7.4 5 11.2 27.6 17.4 3.7 1.1 7.8 2.2 12.4 3.4 1 0.2 19.8 5.1 21.1 5.4 6.8 1.8 11.4 3 15.2 4 5 1.4 6.6 1.9 8.3 2.6 2.8 1.3 4.3 2.9 3.7 5.3-1 4.1-6.5 4.1-16.9 1.8-1.8-0.5-3.9-1-6.5-1.6-1.2-0.4-5.8-1.5-6.8-1.8-4.9-1.2-8.3-2.1-11.6-2.7-13.1-2.4-19.3-0.7-19.7 6.5-0.3 3.9 3 7 10.1 9.8 5.8 2.2 10.8 3.4 26.3 6.5 0.7 0.1 1.2 0.3 1.7 0.4 10.5 2.1 19.9 4.5 28.1 6.9 2.9 0.8 5.4 1.6 7.6 2.3 0.7 0.3 1.3 0.5 1.9 0.7 0.3 0.1 1.5 0.6 2.2 0.8 1.2 0.4 2.6 0.9 4.2 1.4 4.5 1.3 9.4 2.3 14.5 2.8 23.9 2.6 43.1-5.1 53.5-28.1 10.1-22 11.6-39 6-54.1-4.5-12.1-11.6-21.1-29.8-39.6-6.9-7.1-10.4-14.5-11.4-22.5-0.8-5.8-0.3-10.4 1.5-19.2 0.5-2.8-3.1-4.7-8.5-3.8zm-78.3 16.7c-0.4-0.8-0.2-1.8 0.5-2.4 0.7-0.6 17.3-13.1 31.9-7.4 15.6 6.2 21 25 21.2 25.8 0.2 0.9-0.1 1.7-0.8 2.2q-0.1 0.1-0.2 0.1c-0.8 0.5-1.8 0.3-2.4-0.3-0.1-0.2-11.8-12.2-22.9-16.2-11.1-3.9-24.9-0.7-25.1-0.7-0.9 0.2-1.8-0.2-2.2-1.1zm11.4-4.1c5.1-0.2 11.4 0.1 17.2 2.1 6.5 2.3 13 7 17.6 10.9-2.9-5.4-7.8-12-15.3-15-6.6-2.6-14-0.5-19.5 2zm-10.6 16.5c-0.7-0.1-1.3-0.5-1.6-1.2-0.3-0.6-0.2-1.4 0.2-2 0.7-1 13.6-6 25.5-2.5 12 3.7 21.4 16.6 21.8 17.1 0.5 0.8 0.5 1.9-0.2 2.6q-0.1 0.1-0.3 0.2c-0.6 0.5-1.5 0.5-2.2 0.1-0.1-0.1-10.4-6.3-21.5-9.7-11.2-3.4-21.6-4.6-21.7-4.6zm9.6-2.5c3.8 0.7 8.4 1.8 13.3 3.3 4.3 1.3 8.5 3 12 4.6-3.3-2.9-7.5-5.9-12-7.2-4.7-1.4-9.5-1.3-13.3-0.7zm12.7 151c0.4 0.9 0.2 1.9-0.5 2.5-0.1 0.1-1.1 0.9-2.7 2.1-5.3 3.8-17.3 11.1-29.1 8.1-16.1-4.1-22.4-22.8-22.6-23.5-0.3-0.9 0-1.9 0.8-2.4 0.8-0.5 1.9-0.3 2.5 0.3 0.1 0.1 10 10.4 21.3 13.1 11.6 2.7 27.9-1.2 28-1.2 0.9-0.2 1.9 0.2 2.3 1zm-10.5 4.5c-6.2 0.7-14.1 1.1-20.7-0.4-6-1.5-11.5-4.7-15.7-7.7 3.2 5 8.3 10.5 15.5 12.4 7.5 1.9 15.4-1.2 20.9-4.3zm7.8-16.2c0.9 0 1.7 0.7 1.9 1.7 0.1 0.7-0.2 1.5-0.8 1.9q-0.2 0.2-0.5 0.3c-0.6 0.2-15.4 6-27.5 2.5-12.1-3.5-19.5-14.4-19.8-14.9-0.5-0.8-0.4-1.8 0.2-2.4 0.6-0.7 1.5-0.9 2.3-0.5 0.1 0 9.6 4.6 20.9 7.8 11.1 3.3 23.1 3.6 23.3 3.6zm-11.7 2.9c-3.9-0.5-8.3-1.3-12.7-2.6-4.9-1.4-9.4-3-13-4.4 3 2.6 6.9 5.3 11.6 6.6 4.6 1.3 9.7 1.1 14.1 0.4z"/>
								</g>
							</g>
						</g>
					</g>
				</g>
			</g>
		</g>
	</g>
</svg>